<svg width="34" height="24" viewBox="0 0 34 24" fill="none" xmlns="http://www.w3.org/2000/svg">
<path d="M24.9688 7.5H18.0625V14.6892L21.5614 12.2198C21.7623 12.0851 22.0298 12.0111 22.3069 12.0136C22.5839 12.0161 22.8486 12.0949 23.0446 12.2332C23.2405 12.3715 23.3521 12.5584 23.3557 12.754C23.3592 12.9495 23.2544 13.1384 23.0636 13.2802L17.7511 17.0302C17.5518 17.1707 17.2817 17.2497 17 17.2497C16.7183 17.2497 16.4482 17.1707 16.2489 17.0302L10.9364 13.2802C10.7456 13.1384 10.6408 12.9495 10.6443 12.754C10.6479 12.5584 10.7595 12.3715 10.9554 12.2332C11.1514 12.0949 11.4161 12.0161 11.6931 12.0136C11.9702 12.0111 12.2377 12.0851 12.4386 12.2198L15.9375 14.6892V7.5H9.03125C8.0453 7.50074 7.10003 7.77754 6.40286 8.26967C5.70569 8.76179 5.31355 9.42904 5.3125 10.125V19.875C5.31355 20.571 5.70569 21.2382 6.40286 21.7303C7.10003 22.2225 8.0453 22.4993 9.03125 22.5H24.9688C25.9547 22.4993 26.9 22.2225 27.5971 21.7303C28.2943 21.2382 28.6864 20.571 28.6875 19.875V10.125C28.6864 9.42904 28.2943 8.76179 27.5971 8.26967C26.9 7.77754 25.9547 7.50074 24.9688 7.5V7.5Z" fill="#673AB7"/>
<path d="M18.0625 2.25C18.0625 2.05109 17.9506 1.86032 17.7513 1.71967C17.552 1.57902 17.2818 1.5 17 1.5C16.7182 1.5 16.448 1.57902 16.2487 1.71967C16.0494 1.86032 15.9375 2.05109 15.9375 2.25V7.5H18.0625V2.25Z" fill="#673AB7"/>
</svg>
