<svg width="24" height="24" viewBox="0 0 24 24" fill="none" xmlns="http://www.w3.org/2000/svg">
<path d="M20.0098 20V9.13205L12.0098 4.33205L4.00977 9.13205V20H8.00977V17.2501C8.00977 16.1892 8.43119 15.1718 9.18134 14.4216C9.93148 13.6715 10.9489 13.2501 12.0098 13.2501C13.0706 13.2501 14.088 13.6715 14.8382 14.4216C15.5883 15.1718 16.0098 16.1892 16.0098 17.2501V20H20.0098ZM14.0098 22V17.2501C14.0098 16.7196 13.7991 16.2109 13.424 15.8358C13.0489 15.4608 12.5402 15.2501 12.0098 15.2501C11.4793 15.2501 10.9706 15.4608 10.5956 15.8358C10.2205 16.2109 10.0098 16.7196 10.0098 17.2501V22H4.00977C3.47933 22 2.97062 21.7893 2.59555 21.4143C2.22048 21.0392 2.00977 20.5305 2.00977 20V9.13205C2.00976 8.78668 2.0992 8.44719 2.26936 8.14665C2.43952 7.8461 2.68461 7.59474 2.98077 7.41705L10.9808 2.61705C11.2916 2.43055 11.6473 2.33203 12.0098 2.33203C12.3723 2.33203 12.7279 2.43055 13.0388 2.61705L21.0388 7.41705C21.3349 7.59474 21.58 7.8461 21.7502 8.14665C21.9203 8.44719 22.0098 8.78668 22.0098 9.13205V20C22.0098 20.5305 21.7991 21.0392 21.424 21.4143C21.0489 21.7893 20.5402 22 20.0098 22H14.0098Z" fill="#71717A"/>
</svg>
